<svg width="1066" height="861" viewBox="0 0 1066 861" fill="none" xmlns="http://www.w3.org/2000/svg">
<path fill-rule="evenodd" clip-rule="evenodd" d="M788.887 144.361C805.022 123.295 831.994 106.841 847.725 101.556C863.579 96.1487 880.723 93.445 899.157 93.445C907.023 93.445 914.765 93.9366 922.385 94.9197C930.127 95.9029 937.501 97.2548 944.506 98.9753C951.634 100.696 958.27 102.785 964.415 105.243C970.683 107.578 976.213 110.159 981.006 112.986V29.6617H1035.57V314.843H981.006V294.381C976.213 297.699 970.56 300.833 964.046 303.782C957.533 306.732 950.528 309.313 943.031 311.525C935.534 313.737 927.731 315.457 919.619 316.686C911.631 318.038 903.704 318.714 895.839 318.714C877.405 318.714 860.445 316.01 844.96 310.603C829.598 305.196 816.386 297.576 805.326 287.744C794.265 277.912 785.601 266.176 779.333 252.534C773.188 238.77 767.402 212.748 771.345 189.213C724.765 154.228 687.133 146.805 669.79 142.934C656.026 139.861 641.831 138.325 627.207 138.325C617.006 138.325 608.342 139.124 601.214 140.721C594.209 142.196 588.494 144.224 584.07 146.805C579.646 149.263 576.389 152.151 574.3 155.469C572.333 158.664 571.35 162.044 571.35 165.608C571.35 168.189 571.842 170.524 572.825 172.613C573.931 174.702 575.652 176.546 577.987 178.143C580.445 179.618 583.578 180.786 587.388 181.646C591.321 182.383 596.114 182.752 601.767 182.752C606.929 182.752 612.398 182.445 618.174 181.83C623.95 181.216 629.972 180.601 636.24 179.987C642.507 179.25 648.959 178.574 655.596 177.959C662.355 177.345 669.237 177.037 676.242 177.037C689.269 177.037 700.637 178.574 710.346 181.646C720.178 184.718 728.289 189.02 734.68 194.55C741.07 200.08 745.863 206.594 749.059 214.091C752.254 221.587 753.851 229.76 753.851 238.608C753.851 250.038 751.554 260.862 745.925 270.5C711.452 329.526 565.507 341.222 482.707 289.472C439.56 262.505 439.56 222.054 431.348 192.717C428.863 183.838 423.176 176.741 416.785 170.596C410.395 164.451 402.591 159.719 393.373 156.401C384.279 152.96 373.956 151.24 362.404 151.24C348.516 151.24 335.612 153.452 323.691 157.876C311.77 162.3 301.324 167.892 292.353 174.651V311.525H237.787V225.687C220.598 249.864 200.573 296.173 161.293 308.431C147.917 312.605 76.8063 325.987 76.8063 249.864V139.168H29.6615V92.8498H76.8063V30.5887H131.372V92.8498H183.911V139.168H131.372V233.684C131.372 257.389 143.292 259.212 157.729 247.143C178.243 229.995 198.71 182.752 237.787 141.473V29.6617H292.353V113.907C303.782 107.64 316.502 102.662 330.512 98.9753C344.645 95.2884 359.454 93.445 374.939 93.445C392.882 93.445 408.981 96.0873 423.237 101.372C437.616 106.656 449.783 114.276 459.738 124.231C469.692 134.062 476.598 146.332 482.596 160.178C498.887 197.784 485.404 229.391 521.762 252.534C554.441 273.336 652.093 278.685 684.064 261.178C695.903 254.694 700.244 242.032 692.154 233.942C687.89 229.678 677.901 226.442 667.578 226.442C662.785 226.442 657.624 226.749 652.093 227.363C646.563 227.978 640.725 228.654 634.58 229.391C628.559 230.006 622.229 230.62 615.593 231.235C609.079 231.849 602.443 232.156 595.684 232.156C580.936 232.156 568.339 230.559 557.893 227.363C547.57 224.168 539.151 219.805 532.638 214.275C526.124 208.745 521.393 202.231 518.443 194.734C515.494 187.115 514.019 178.942 514.019 170.217C514.019 159.156 516.6 148.956 521.762 139.615C526.923 130.275 534.297 122.226 543.883 115.466C553.469 108.584 565.021 103.238 578.54 99.4283C592.181 95.6185 607.359 93.7136 624.073 93.7136C632.799 93.7136 641.893 94.2666 651.356 95.3727C660.942 96.3559 670.343 97.7077 679.561 99.4283C688.778 101.149 697.626 103.177 706.106 105.512C714.586 107.724 752.354 119.115 788.887 144.361ZM832.609 231.703C829.168 223.961 827.447 215.727 827.447 207.001C827.447 197.661 829.229 188.997 832.793 181.009C836.357 173.02 841.457 166.077 848.094 160.178C854.853 154.279 863.087 149.67 872.796 146.352C882.628 142.911 893.811 141.19 906.347 141.19C912.491 141.19 918.821 141.682 925.334 142.665C931.848 143.525 938.3 144.939 944.69 146.905C951.081 148.871 957.349 151.391 963.494 154.463C969.638 157.535 975.476 161.284 981.006 165.708V241.105C976.582 245.652 971.359 249.769 965.337 253.456C959.438 257.143 953.047 260.277 946.165 262.858C939.406 265.439 932.339 267.466 924.965 268.941C917.592 270.293 910.218 270.969 902.844 270.969C891.292 270.969 880.846 269.31 871.505 265.992C862.288 262.55 854.361 257.942 847.725 252.166C841.211 246.267 836.173 239.446 832.609 231.703Z" fill="#F8F8F8"/>
<path fill-rule="evenodd" clip-rule="evenodd" d="M872.796 146.352C863.087 149.67 854.853 154.279 848.094 160.178C841.458 166.077 836.357 173.02 832.793 181.009C829.229 188.997 827.447 197.661 827.447 207.001C827.447 215.727 829.168 223.961 832.609 231.703C836.173 239.446 841.212 246.267 847.725 252.166C854.362 257.942 862.288 262.55 871.506 265.992C880.846 269.31 891.292 270.969 902.844 270.969C910.218 270.969 917.592 270.293 924.966 268.941C932.339 267.466 939.406 265.439 946.165 262.858C953.048 260.277 959.438 257.143 965.337 253.456C971.359 249.769 976.582 245.652 981.006 241.105V165.708C975.476 161.284 969.639 157.535 963.494 154.463C957.349 151.391 951.081 148.871 944.691 146.905C938.3 144.939 931.848 143.525 925.334 142.665C918.821 141.682 912.492 141.19 906.347 141.19C893.811 141.19 882.628 142.911 872.796 146.352ZM770.934 191.931C771.057 191.022 771.194 190.116 771.345 189.213C769.861 188.098 768.386 187.012 766.921 185.952C761.568 182.082 756.341 178.575 751.258 175.394C739.256 167.88 728.056 162.18 717.895 157.793C717.867 157.781 717.839 157.77 717.812 157.758C707.421 153.277 698.118 150.171 690.154 147.906C682.796 145.813 676.581 144.437 671.707 143.359C671.043 143.212 670.404 143.071 669.791 142.934C656.026 139.861 641.832 138.325 627.207 138.325C617.006 138.325 608.342 139.124 601.214 140.721C594.209 142.196 588.495 144.224 584.07 146.805C579.646 149.263 576.389 152.151 574.3 155.469C572.334 158.664 571.351 162.044 571.351 165.608C571.351 168.189 571.842 170.524 572.825 172.613C573.931 174.702 575.652 176.546 577.987 178.143C580.445 179.618 583.579 180.786 587.389 181.646C591.321 182.383 596.114 182.752 601.767 182.752C606.929 182.752 612.398 182.445 618.174 181.83C623.95 181.216 629.972 180.601 636.24 179.987C642.508 179.249 648.96 178.574 655.596 177.959C662.355 177.345 669.238 177.037 676.243 177.037C679.218 177.037 682.107 177.118 684.91 177.278C694.377 177.819 702.855 179.275 710.346 181.646C720.178 184.718 728.289 189.02 734.68 194.55C736.79 196.376 738.726 198.309 740.488 200.35C742.322 202.474 743.967 204.714 745.423 207.071C746.805 209.306 748.017 211.646 749.059 214.091C752.254 221.587 753.852 229.76 753.852 238.608C753.852 246.212 752.835 253.547 750.497 260.444C749.32 263.914 747.809 267.274 745.925 270.5C711.452 329.526 565.507 341.222 482.707 289.472C447.622 267.544 441.066 236.7 435.427 210.166C434.131 204.069 432.883 198.199 431.349 192.717C428.863 183.838 423.176 176.741 416.785 170.596C410.395 164.451 402.591 159.719 393.374 156.401C384.279 152.96 373.956 151.24 362.404 151.24C348.516 151.24 335.612 153.452 323.691 157.876C311.77 162.3 301.324 167.892 292.353 174.651V311.525H237.787V225.687C234.149 230.804 230.384 236.912 226.336 243.48C220.901 252.298 214.956 261.943 208.125 271.126C196.006 287.416 181.097 302.251 161.293 308.431C147.917 312.605 76.8065 325.987 76.8065 249.864V139.168H29.6617V92.8498H76.8065V30.5887H131.373V92.8498H183.911V139.168H131.373V233.684C131.373 257.389 143.292 259.212 157.729 247.143C167.325 239.121 176.911 224.514 188.397 207.012C201.464 187.101 216.99 163.442 237.787 141.473V29.6617H292.353V113.907C301.427 108.931 311.314 104.769 322.015 101.419C324.792 100.55 327.625 99.7351 330.512 98.9753C344.645 95.2884 359.454 93.445 374.939 93.445C392.882 93.445 408.982 96.0872 423.238 101.372C437.616 106.656 449.783 114.276 459.738 124.231C469.692 134.062 476.599 146.332 482.596 160.178C483.282 161.76 483.914 163.331 484.5 164.892C485.172 166.681 485.782 168.456 486.34 170.217C489.463 180.076 490.939 189.482 492.335 198.385C492.657 200.438 492.975 202.465 493.308 204.464C493.316 204.514 493.325 204.564 493.333 204.614C493.939 208.242 494.596 211.779 495.42 215.223C498.788 229.309 504.941 241.827 521.762 252.534C554.441 273.336 652.093 278.685 684.064 261.178C695.904 254.694 700.244 242.032 692.154 233.942C687.89 229.678 677.902 226.442 667.578 226.442C662.785 226.442 657.624 226.749 652.093 227.363C646.563 227.978 640.726 228.654 634.581 229.391C628.559 230.006 622.23 230.62 615.593 231.235C609.08 231.849 602.443 232.156 595.684 232.156C580.936 232.156 568.34 230.559 557.893 227.363C547.57 224.168 539.152 219.805 532.638 214.275C528.99 211.177 525.901 207.771 523.37 204.057C521.383 201.139 519.741 198.032 518.444 194.734C515.494 187.115 514.019 178.942 514.019 170.217C514.019 167.205 514.211 164.257 514.593 161.373C515.616 153.665 518.006 146.412 521.762 139.615C526.923 130.275 534.297 122.226 543.883 115.466C553.469 108.584 565.021 103.238 578.54 99.4283C592.181 95.6185 607.359 93.7136 624.073 93.7136C632.799 93.7136 641.893 94.2666 651.356 95.3727C660.942 96.3559 670.344 97.7077 679.561 99.4283C688.778 101.149 697.627 103.177 706.106 105.512C714.586 107.724 752.354 119.115 788.888 144.361C805.023 123.295 831.994 106.841 847.725 101.556C863.579 96.1487 880.723 93.445 899.157 93.445C907.023 93.445 914.765 93.9365 922.385 94.9197C930.127 95.9029 937.501 97.2548 944.506 98.9753C946.838 99.5382 949.118 100.141 951.345 100.782C955.924 102.102 960.281 103.589 964.415 105.243C970.683 107.578 976.213 110.159 981.006 112.986V29.6617H1035.57V314.843H981.006V294.381C976.213 297.699 970.56 300.833 964.047 303.782C960.002 305.614 955.768 307.303 951.345 308.85C948.644 309.795 945.873 310.686 943.031 311.525C935.535 313.737 927.731 315.457 919.62 316.686C911.631 318.038 903.705 318.714 895.839 318.714C877.405 318.714 860.445 316.01 844.96 310.603C829.598 305.196 816.387 297.576 805.326 287.744C795.656 279.149 787.818 269.098 781.812 257.591C780.948 255.935 780.122 254.25 779.333 252.534C777.633 248.726 775.961 243.98 774.514 238.608C771.896 228.886 770.017 217.114 770.055 205.141C770.069 200.734 770.342 196.3 770.934 191.931ZM768.028 290.994C754.882 310.154 734.89 323.675 713.689 332.86C690.192 343.04 662.759 348.999 634.656 351.106C579.035 355.275 515.108 344.701 466.986 314.625C419.907 285.2 410.704 239.09 405.485 212.936C404.52 208.103 403.691 203.951 402.785 200.712C402.376 199.25 401.028 196.593 396.227 191.977C393.144 189.013 389.035 186.365 383.327 184.31L383.101 184.228L382.877 184.143C377.702 182.186 371.029 180.901 362.404 180.901C351.715 180.901 342.339 182.594 334.012 185.684C329.664 187.298 325.674 189.063 322.015 190.959V341.186H208.125V315.035C197.667 324.128 185.144 332.061 170.129 336.746C160.775 339.665 133.143 345.696 105.762 337.744C91.205 333.517 75.7493 325.012 64.1989 309.246C52.7094 293.563 47.1448 273.508 47.1448 249.864V168.829H0V63.1881H47.1448V0.926989H161.034V63.1881H208.125V0H322.015V70.5421C322.33 70.4575 322.647 70.3736 322.963 70.2902L322.994 70.2821L323.025 70.2741C339.745 65.9123 357.079 63.7832 374.939 63.7832C395.765 63.7832 415.425 66.8485 433.505 73.5436C451.516 80.1683 467.415 89.9785 480.649 103.194C487.035 109.512 492.331 116.372 496.838 123.44C504.275 110.648 514.428 99.9616 526.685 91.2992C539.526 82.1007 554.313 75.4386 570.494 70.8786L570.528 70.8691L570.561 70.8597C587.218 66.208 605.133 64.0519 624.073 64.0519C633.982 64.0519 644.16 64.6755 654.59 65.8871C664.892 66.9493 675.031 68.4087 685.004 70.2702C694.921 72.1214 704.523 74.3157 713.799 76.8642C722.539 79.1628 751.72 87.9919 784.07 106.372C802.162 90.2671 823.196 78.5194 838.213 73.461C857.425 66.9164 877.815 63.7832 899.157 63.7832C908.252 63.7832 917.253 64.3512 926.151 65.4981C934.832 66.6014 943.237 68.1306 951.345 70.1118V0H1065.23V344.505H951.345V339.998C942.595 342.576 933.578 344.561 924.314 345.975C914.824 347.567 905.327 348.376 895.839 348.376C874.484 348.376 854.173 345.239 835.181 338.606L835.146 338.594L835.112 338.582C816.484 332.025 799.835 322.549 785.62 309.914C779.106 304.124 773.239 297.809 768.028 290.994ZM178.232 168.829C173.816 175.23 169.759 181.363 166.012 187.063C165.18 188.327 164.37 189.562 163.579 190.767C162.709 192.093 161.861 193.384 161.034 194.641V168.829H178.232ZM669.884 235.121C669.885 235.122 669.87 235.132 669.837 235.15C669.867 235.13 669.884 235.121 669.884 235.121ZM592.503 152.317C592.505 152.318 592.507 152.318 592.51 152.32C592.503 152.317 592.5 152.316 592.503 152.317ZM951.345 181.565C950.974 181.37 950.602 181.18 950.229 180.993C945.505 178.631 940.754 176.728 935.967 175.255C931.13 173.766 926.295 172.711 921.45 172.071L921.178 172.035L920.907 171.994C915.755 171.217 910.908 170.852 906.347 170.852C896.49 170.852 888.711 172.208 882.595 174.348L882.492 174.384L882.389 174.42C875.867 176.648 871.16 179.442 867.698 182.439C864.214 185.559 861.685 189.052 859.881 193.094C858.127 197.026 857.109 201.539 857.109 207.001C857.109 211.631 857.982 215.694 859.636 219.478C861.432 223.32 863.945 226.788 867.419 229.982C870.999 233.049 875.614 235.837 881.652 238.118C887.287 240.088 894.237 241.307 902.844 241.307C908.318 241.307 913.824 240.813 919.384 239.808C925.11 238.65 930.501 237.088 935.585 235.147L935.668 235.116L935.75 235.085C940.885 233.159 945.486 230.885 949.616 228.303L949.732 228.23L949.849 228.159C950.362 227.845 950.86 227.531 951.345 227.215V181.565Z" fill="#080808"/>
<path d="M268.594 405.629C291.525 405.629 311.454 408.112 328.358 413.107C345.247 418.097 359.316 425.343 370.523 434.873L371.566 435.761C382.248 445.001 390.215 456.242 395.457 469.467L395.967 470.75C401.157 484.062 403.74 498.972 403.74 515.461C403.74 531.475 401.049 546.3 395.652 559.922C390.244 573.571 381.937 585.417 370.746 595.449H370.745C359.671 605.365 345.671 613.124 328.783 618.753L328.774 618.756C311.857 624.267 291.916 627.007 268.975 627.007H268.972L173.449 626.819V715.687H110.42V405.629H268.594ZM589.045 410.122L589.411 410.893L733.036 713.761L733.95 715.687H667.696L667.332 714.907L643.948 664.724H472.225L449.595 714.893L449.238 715.687H382.808L383.688 713.775L523.134 410.906L523.495 410.122H589.045ZM737.909 410.122L738.29 410.829L828.642 577.821L917.866 410.835L918.246 410.122H989.708L988.549 412.142L860.451 635.27V715.687H797.422V635.655L667.614 412.148L666.437 410.122H737.909ZM496.435 611.453H618.942L556.862 478.444L496.435 611.453ZM173.449 571.972H270.118C281.437 571.972 291.255 570.65 299.595 568.036C308.078 565.29 315.074 561.501 320.62 556.696C326.294 551.761 330.481 545.85 333.192 538.949L333.197 538.938C336.043 531.884 337.476 524.064 337.476 515.461C337.476 498.148 331.826 484.85 320.634 475.38L320.627 475.375L320.621 475.37C309.546 465.772 292.792 460.854 270.118 460.854H173.449V571.972Z" fill="white" stroke="white" stroke-width="2.69615"/>
<path d="M584.202 854.703L586.575 813.078L597.504 824.007L622.565 798.946L639.872 816.167L614.855 841.358L625.74 852.374L584.202 854.703Z" fill="#013CFF"/>
<path d="M614.441 791.019L572.903 793.349L583.831 804.234L558.814 829.425L576.122 846.646L601.182 821.585L612.111 832.514L614.441 791.019Z" fill="#43BBFF"/>
<path d="M861.087 848.325C856.294 848.325 852.533 846.977 849.803 844.28C847.107 841.584 845.759 837.69 845.759 832.597V812.875H852.25V832.347C852.25 835.942 853.015 838.555 854.546 840.186C856.111 841.817 858.308 842.633 861.137 842.633C863.966 842.633 866.147 841.817 867.678 840.186C869.209 838.555 869.975 835.942 869.975 832.347V812.875H876.365V832.597C876.365 837.69 875.001 841.584 872.271 844.28C869.575 846.977 865.847 848.325 861.087 848.325ZM890.748 839.587L890.399 831.898L908.722 812.875H916.012L900.784 829.052L897.189 832.997L890.748 839.587ZM884.956 847.825V812.875H891.447V847.825H884.956ZM909.322 847.825L895.941 831.898L900.235 827.155L916.911 847.825H909.322Z" fill="#063BFF"/>
<path d="M807.308 849.276C803.624 849.276 800.304 848.452 797.347 846.804C794.39 845.107 792.039 842.756 790.294 839.751C788.598 836.746 787.75 833.207 787.75 829.136C787.75 825.016 788.598 821.453 790.294 818.448C792.039 815.443 794.39 813.116 797.347 811.468C800.304 809.82 803.624 808.996 807.308 808.996C810.604 808.996 813.488 809.723 815.96 811.177C818.432 812.631 820.347 814.837 821.704 817.793C823.061 820.75 823.74 824.531 823.74 829.136C823.74 833.692 823.085 837.473 821.777 840.478C820.468 843.435 818.578 845.64 816.106 847.094C813.682 848.549 810.749 849.276 807.308 849.276ZM809.271 839.969C811.113 839.969 812.785 839.533 814.288 838.66C815.79 837.788 816.978 836.552 817.851 834.952C818.771 833.304 819.232 831.365 819.232 829.136C819.232 826.858 818.771 824.919 817.851 823.319C816.978 821.72 815.79 820.484 814.288 819.611C812.785 818.739 811.113 818.302 809.271 818.302C807.381 818.302 805.684 818.739 804.182 819.611C802.679 820.484 801.467 821.72 800.546 823.319C799.674 824.919 799.237 826.858 799.237 829.136C799.237 831.365 799.674 833.304 800.546 834.952C801.467 836.552 802.679 837.788 804.182 838.66C805.684 839.533 807.381 839.969 809.271 839.969ZM819.523 848.694V840.696L819.741 829.063L819.014 817.503V794.745H830.356V848.694H819.523Z" fill="#063BFF"/>
<path d="M773.374 848.694V841.06L772.647 839.388V825.719C772.647 823.295 771.896 821.405 770.393 820.047C768.939 818.69 766.685 818.012 763.631 818.012C761.547 818.012 759.487 818.351 757.451 819.029C755.464 819.66 753.767 820.532 752.362 821.647L748.29 813.722C750.423 812.219 752.992 811.056 755.997 810.232C759.002 809.408 762.056 808.996 765.158 808.996C771.12 808.996 775.749 810.402 779.045 813.213C782.341 816.024 783.989 820.411 783.989 826.373V848.694H773.374ZM761.45 849.276C758.396 849.276 755.779 848.767 753.598 847.749C751.417 846.683 749.744 845.253 748.581 843.459C747.418 841.666 746.836 839.654 746.836 837.424C746.836 835.098 747.393 833.062 748.508 831.317C749.672 829.572 751.489 828.215 753.961 827.245C756.433 826.228 759.657 825.719 763.631 825.719H774.029V832.335H764.867C762.201 832.335 760.36 832.771 759.342 833.644C758.372 834.516 757.887 835.607 757.887 836.916C757.887 838.37 758.445 839.533 759.56 840.405C760.723 841.229 762.298 841.641 764.286 841.641C766.176 841.641 767.873 841.205 769.375 840.333C770.878 839.412 771.968 838.079 772.647 836.334L774.392 841.569C773.568 844.089 772.065 846.004 769.884 847.313C767.703 848.621 764.892 849.276 761.45 849.276Z" fill="#063BFF"/>
<path d="M723.507 849.276C719.338 849.276 715.63 848.403 712.383 846.658C709.184 844.913 706.639 842.538 704.748 839.533C702.906 836.479 701.985 833.014 701.985 829.136C701.985 825.21 702.906 821.744 704.748 818.739C706.639 815.685 709.184 813.31 712.383 811.613C715.63 809.868 719.338 808.996 723.507 808.996C727.627 808.996 731.311 809.868 734.558 811.613C737.806 813.31 740.351 815.661 742.193 818.666C744.035 821.671 744.956 825.161 744.956 829.136C744.956 833.014 744.035 836.479 742.193 839.533C740.351 842.538 737.806 844.913 734.558 846.658C731.311 848.403 727.627 849.276 723.507 849.276ZM723.507 839.969C725.397 839.969 727.094 839.533 728.596 838.66C730.099 837.788 731.287 836.552 732.159 834.952C733.032 833.304 733.468 831.366 733.468 829.136C733.468 826.858 733.032 824.919 732.159 823.319C731.287 821.72 730.099 820.484 728.596 819.611C727.094 818.739 725.397 818.302 723.507 818.302C721.616 818.302 719.92 818.739 718.417 819.611C716.915 820.484 715.703 821.72 714.782 823.319C713.909 824.919 713.473 826.858 713.473 829.136C713.473 831.366 713.909 833.304 714.782 834.952C715.703 836.552 716.915 837.788 718.417 838.66C719.92 839.533 721.616 839.969 723.507 839.969Z" fill="#063BFF"/>
<path d="M655.704 848.694V797.799H677.734C682.29 797.799 686.216 798.55 689.513 800.053C692.809 801.507 695.353 803.615 697.147 806.378C698.94 809.141 699.837 812.437 699.837 816.267C699.837 820.047 698.94 823.319 697.147 826.082C695.353 828.796 692.809 830.881 689.513 832.335C686.216 833.789 682.29 834.516 677.734 834.516H662.247L667.482 829.354V848.694H655.704ZM688.058 848.694L675.335 830.226H687.913L700.782 848.694H688.058ZM667.482 830.663L662.247 825.137H677.08C680.715 825.137 683.429 824.361 685.223 822.81C687.016 821.211 687.913 819.029 687.913 816.267C687.913 813.455 687.016 811.274 685.223 809.723C683.429 808.172 680.715 807.396 677.08 807.396H662.247L667.482 801.798V830.663Z" fill="#063BFF"/>
<path d="M183.043 848V805.928H200.353C204.08 805.928 207.265 806.529 209.91 807.731C212.594 808.933 214.658 810.656 216.1 812.9C217.543 815.144 218.264 817.808 218.264 820.893C218.264 823.979 217.543 826.643 216.1 828.887C214.658 831.131 212.594 832.854 209.91 834.056C207.265 835.258 204.08 835.859 200.353 835.859H187.371L190.857 832.193V848H183.043ZM190.857 833.034L187.371 829.248H199.993C203.438 829.248 206.023 828.527 207.746 827.084C209.509 825.602 210.39 823.538 210.39 820.893C210.39 818.209 209.509 816.145 207.746 814.703C206.023 813.26 203.438 812.539 199.993 812.539H187.371L190.857 808.692V833.034ZM239.052 848.421C235.766 848.421 232.841 847.72 230.277 846.317C227.712 844.875 225.689 842.911 224.206 840.427C222.724 837.943 221.982 835.118 221.982 831.952C221.982 828.747 222.724 825.922 224.206 823.478C225.689 820.994 227.712 819.05 230.277 817.648C232.841 816.245 235.766 815.544 239.052 815.544C242.377 815.544 245.322 816.245 247.887 817.648C250.491 819.05 252.515 820.974 253.957 823.418C255.44 825.862 256.181 828.707 256.181 831.952C256.181 835.118 255.44 837.943 253.957 840.427C252.515 842.911 250.491 844.875 247.887 846.317C245.322 847.72 242.377 848.421 239.052 848.421ZM239.052 841.99C240.895 841.99 242.538 841.589 243.98 840.788C245.423 839.986 246.545 838.824 247.346 837.302C248.187 835.779 248.608 833.996 248.608 831.952C248.608 829.869 248.187 828.086 247.346 826.603C246.545 825.081 245.423 823.919 243.98 823.117C242.538 822.316 240.915 821.915 239.112 821.915C237.269 821.915 235.626 822.316 234.183 823.117C232.781 823.919 231.659 825.081 230.818 826.603C229.976 828.086 229.555 829.869 229.555 831.952C229.555 833.996 229.976 835.779 230.818 837.302C231.659 838.824 232.781 839.986 234.183 840.788C235.626 841.589 237.249 841.99 239.052 841.99ZM268.976 848L257.196 815.905H264.288L274.385 844.213H271.02L281.598 815.905H287.909L298.186 844.213H294.881L305.278 815.905H311.95L300.11 848H292.897L283.521 822.937H285.745L276.188 848H268.976ZM330.72 848.421C327.154 848.421 324.028 847.72 321.344 846.317C318.699 844.875 316.636 842.911 315.153 840.427C313.711 837.943 312.989 835.118 312.989 831.952C312.989 828.747 313.691 825.922 315.093 823.478C316.536 820.994 318.499 819.05 320.983 817.648C323.508 816.245 326.372 815.544 329.578 815.544C332.703 815.544 335.488 816.225 337.932 817.588C340.377 818.95 342.3 820.873 343.702 823.358C345.105 825.842 345.806 828.767 345.806 832.133C345.806 832.453 345.786 832.814 345.746 833.215C345.746 833.615 345.726 833.996 345.686 834.357H318.94V829.368H341.719L338.774 830.931C338.814 829.088 338.433 827.465 337.632 826.062C336.83 824.66 335.729 823.558 334.326 822.757C332.964 821.955 331.381 821.555 329.578 821.555C327.735 821.555 326.112 821.955 324.71 822.757C323.347 823.558 322.265 824.68 321.464 826.122C320.703 827.525 320.322 829.188 320.322 831.111V832.313C320.322 834.236 320.763 835.939 321.644 837.422C322.526 838.904 323.768 840.046 325.371 840.848C326.973 841.649 328.817 842.05 330.9 842.05C332.703 842.05 334.326 841.769 335.769 841.208C337.211 840.647 338.493 839.766 339.615 838.564L343.642 843.192C342.2 844.875 340.377 846.177 338.173 847.098C336.009 847.98 333.525 848.421 330.72 848.421ZM352.421 848V815.905H359.574V824.74L358.732 822.156C359.694 819.992 361.197 818.349 363.24 817.227C365.324 816.105 367.908 815.544 370.993 815.544V822.697C370.673 822.616 370.372 822.576 370.092 822.576C369.811 822.536 369.531 822.516 369.25 822.516C366.405 822.516 364.142 823.358 362.459 825.041C360.776 826.683 359.934 829.148 359.934 832.433V848H352.421ZM391.558 848.421C387.992 848.421 384.867 847.72 382.182 846.317C379.537 844.875 377.474 842.911 375.991 840.427C374.549 837.943 373.828 835.118 373.828 831.952C373.828 828.747 374.529 825.922 375.931 823.478C377.374 820.994 379.337 819.05 381.821 817.648C384.346 816.245 387.211 815.544 390.416 815.544C393.541 815.544 396.326 816.225 398.77 817.588C401.215 818.95 403.138 820.873 404.54 823.358C405.943 825.842 406.644 828.767 406.644 832.133C406.644 832.453 406.624 832.814 406.584 833.215C406.584 833.615 406.564 833.996 406.524 834.357H379.778V829.368H402.557L399.612 830.931C399.652 829.088 399.271 827.465 398.47 826.062C397.669 824.66 396.567 823.558 395.164 822.757C393.802 821.955 392.219 821.555 390.416 821.555C388.573 821.555 386.95 821.955 385.548 822.757C384.185 823.558 383.104 824.68 382.302 826.122C381.541 827.525 381.16 829.188 381.16 831.111V832.313C381.16 834.236 381.601 835.939 382.482 837.422C383.364 838.904 384.606 840.046 386.209 840.848C387.812 841.649 389.655 842.05 391.738 842.05C393.541 842.05 395.164 841.769 396.607 841.208C398.049 840.647 399.331 839.766 400.453 838.564L404.48 843.192C403.038 844.875 401.215 846.177 399.011 847.098C396.847 847.98 394.363 848.421 391.558 848.421ZM426.843 848.421C423.758 848.421 420.973 847.74 418.489 846.377C416.044 844.975 414.121 843.051 412.719 840.607C411.316 838.163 410.615 835.278 410.615 831.952C410.615 828.627 411.316 825.742 412.719 823.298C414.121 820.853 416.044 818.95 418.489 817.588C420.973 816.225 423.758 815.544 426.843 815.544C429.528 815.544 431.932 816.145 434.055 817.347C436.179 818.509 437.862 820.292 439.104 822.697C440.346 825.101 440.967 828.186 440.967 831.952C440.967 835.679 440.366 838.764 439.164 841.208C437.962 843.612 436.299 845.416 434.175 846.618C432.052 847.82 429.608 848.421 426.843 848.421ZM427.744 841.99C429.548 841.99 431.15 841.589 432.553 840.788C433.995 839.986 435.137 838.824 435.979 837.302C436.86 835.779 437.301 833.996 437.301 831.952C437.301 829.869 436.86 828.086 435.979 826.603C435.137 825.081 433.995 823.919 432.553 823.117C431.15 822.316 429.548 821.915 427.744 821.915C425.941 821.915 424.319 822.316 422.876 823.117C421.474 823.919 420.332 825.081 419.45 826.603C418.609 828.086 418.188 829.869 418.188 831.952C418.188 833.996 418.609 835.779 419.45 837.302C420.332 838.824 421.474 839.986 422.876 840.788C424.319 841.589 425.941 841.99 427.744 841.99ZM437.481 848V840.427L437.782 831.892L437.181 823.358V803.403H444.633V848H437.481ZM487.721 848.421C484.996 848.421 482.572 847.82 480.448 846.618C478.325 845.416 476.642 843.612 475.4 841.208C474.198 838.764 473.597 835.679 473.597 831.952C473.597 828.186 474.218 825.101 475.46 822.697C476.742 820.292 478.445 818.509 480.569 817.347C482.732 816.145 485.116 815.544 487.721 815.544C490.886 815.544 493.671 816.225 496.075 817.588C498.519 818.95 500.443 820.853 501.845 823.298C503.288 825.742 504.009 828.627 504.009 831.952C504.009 835.278 503.288 838.163 501.845 840.607C500.443 843.051 498.519 844.975 496.075 846.377C493.671 847.74 490.886 848.421 487.721 848.421ZM469.93 848V803.403H477.443V823.358L476.842 831.892L477.083 840.427V848H469.93ZM486.879 841.99C488.683 841.99 490.285 841.589 491.688 840.788C493.13 839.986 494.272 838.824 495.114 837.302C495.955 835.779 496.376 833.996 496.376 831.952C496.376 829.869 495.955 828.086 495.114 826.603C494.272 825.081 493.13 823.919 491.688 823.117C490.285 822.316 488.683 821.915 486.879 821.915C485.076 821.915 483.454 822.316 482.011 823.117C480.569 823.919 479.427 825.081 478.585 826.603C477.744 828.086 477.323 829.869 477.323 831.952C477.323 833.996 477.744 835.779 478.585 837.302C479.427 838.824 480.569 839.986 482.011 840.788C483.454 841.589 485.076 841.99 486.879 841.99ZM512.297 860.081C510.734 860.081 509.172 859.82 507.609 859.299C506.046 858.779 504.744 858.057 503.702 857.136L506.707 851.606C507.469 852.287 508.33 852.828 509.292 853.229C510.254 853.63 511.235 853.83 512.237 853.83C513.599 853.83 514.701 853.489 515.543 852.808C516.384 852.127 517.165 850.985 517.887 849.382L519.75 845.175L520.351 844.274L532.492 815.905H539.704L524.678 850.584C523.677 852.989 522.555 854.892 521.313 856.294C520.11 857.697 518.748 858.678 517.225 859.239C515.743 859.8 514.1 860.081 512.297 860.081ZM518.908 849.142L504.423 815.905H512.237L524.017 843.612L518.908 849.142Z" fill="#080808"/>
</svg>
